<svg version="1" xmlns="http://www.w3.org/2000/svg" width="173.333" height="173.333" viewBox="0 0 130.000000 130.000000"><path d="M81.9.7c0 .5-.2 21.7-.3 47.3-.2 25.6-.6 47.5-.9 48.6-1.9 7.2-7.6 14.5-13.4 17-2.7 1.2-3.5 1.1-6.1-.1-1.6-.9-3.5-2.2-4.2-3-.7-.8-1.9-1.5-2.7-1.5-.8 0-1.1-.5-.8-1 .3-.6.2-1-.4-1-.5 0-1.3.5-1.6 1-.3.6-1.1 1-1.8 1-.6 0-.2-.7 1-1.5l2.1-1.5-2.9-5.5c-1.5-3-2.4-5.5-2-5.5.5 0 .7-.8.5-1.8-.5-1.5-2.3-1.7-17-2l-16.6-.3.7 4.3c2.1 14 9.4 24.6 20.7 30.2 8.2 4.1 13.3 4.8 30.5 4.2 16.1-.5 20.3-1.1 20.3-2.8 0-.5-.6-.6-1.2-.2-.7.4-.9.3-.5-.1 1.1-1.3 3.8-1.5 3.1-.3-.4.7.2.8 1.7.3 1.3-.4 2.6-1.2 2.7-1.6.2-.5.9-.9 1.6-.9.7 0 2-.6 3-1.3 1.6-1.2 1.7-1.7.7-3.8l-1.2-2.4 1.8 2.2 1.8 2.3 2.2-2.8c1.2-1.5 3.1-3.8 4.2-5.1 1.2-1.4 1.9-3.1 1.6-3.8-.2-.8-.1-1.2.4-.9.8.5 1.8-1 2.2-3.2 0-.4.5-1.2 1.1-1.9 1.3-1.7.1-3.3-2-2.7-1.4.5-1.4.4-.2-.4.8-.6 1.8-.8 2.2-.6 1.1.7 1.7-1.2 2.2-6.6.3-2.8 0-4.8-.7-5.2-.9-.6-.9-.8.1-.8.8 0 1.2-1.6 1.2-4.8 0-2.6-.6-5.4-1.2-6.1-.9-1-.9-1.2-.1-.7.8.4 1.1-.1 1-1.4-.1-1.1-.6-2-1.2-2-.5 0-.4-.4.3-.9 1.8-1.1 1.2-6.6-.7-6.6-1.8 0-2.6-2.1-1.2-3 .6-.3.9 0 .5.8-.3.8.2 1.4 1.1 1.4 1.8 0 2-1.8.3-3.6-1.1-1.1-1-1.2 0-.6 1.6.8 1.3-2.6-.3-3.7-.6-.5-.5-.8.3-.8s1.2-1.6 1.2-4.8c0-2.6-.6-5.4-1.2-6.1-.9-1-.9-1.2-.1-.7.8.4 1.1-.1 1-1.4-.1-1.1-.6-2-1.2-2-.5 0-.4-.4.3-.9 1.8-1.1 1.2-6.6-.7-6.6-1.8 0-2.6-2.1-1.2-3 .6-.3.9 0 .5.8-.3.8.2 1.4 1.1 1.4 1.8 0 2-1.8.3-3.6-1.1-1.1-1-1.2 0-.6 1.6.8 1.3-2.6-.3-3.7-.6-.5-.5-.8.3-.8 1.6 0 1.6-9.1 0-10.9-.9-1-.9-1.2-.1-.7.8.4 1.1-.1 1-1.4-.1-1.1-.6-2-1.2-2-.5 0-.4-.4.3-.9.8-.4 1.2-2 1-3.6-.2-2.1-.9-2.9-2.7-3.2-1.4-.2-2.8.2-3.3.9-.6 1-.8 1-.8 0 0-1.5-4.4-1.6-7.2-.1-1.5.8-1.9.8-1.4 0S97.4 0 91.1 0c-5 0-9.1.3-9.2.7zm23.1 1c0 .5-1 1.9-2.1 3.3l-2.1 2.5 1.8-3.3C104.4 1 105 .4 105 1.7zm3 1.7c0 .3-.4.8-1 1.1-.5.3-1 .1-1-.4 0-.6.5-1.1 1-1.1.6 0 1 .2 1 .4zm5.2.3c-.6.2-.9 1-.6 1.5.4.7.2.8-.4.4-1.8-1.1-1.4-2.6.6-2.5 1 0 1.2.3.4.6zm-9.1 3.6c-1 .9-1.1.8-.5-.6.3-1 .9-1.5 1.2-1.2.3.3 0 1.1-.7 1.8zm8.4 1.7c.4.6-.1.7-1.1.3-1.3-.5-1.5-.3-.9.7.5.9.4 1.1-.4.6-.6-.4-.9-1.2-.6-1.7.8-1.2 2.2-1.2 3 .1zM102 10.9c-1.3 2.6-1.3 3.4.2 2.5.7-.4.8-.3.4.4-.4.6-1.3.9-2.1.6-1.2-.5-1.2-.9.2-3 1.8-2.9 2.8-3.2 1.3-.5zm2.1.4c-1 .9-1.1.8-.5-.6.3-1 .9-1.5 1.2-1.2.3.3 0 1.1-.7 1.8zm2.9.7c0 .5-.5 1-1.1 1-.5 0-.7-.5-.4-1 .3-.6.8-1 1.1-1 .2 0 .4.4.4 1zm5.5 2.1c-.4.5-1.2.9-1.8.8-.9 0-.8-.2.1-.6.6-.2.9-1 .6-1.5-.4-.7-.2-.8.5-.4.6.4.9 1.2.6 1.7zm-8.5 1.4c-.7.8-1.7 1.5-2.3 1.5-.6 0-.2-.7.9-1.5 2.5-1.9 3-1.9 1.4 0zm4-.1c-.1.5.4 1.3 1.2 1.8 1.1.8 1.1.9 0 .6-.8-.2-1.3-.7-1.2-1.2.1-.5-.4-1.3-1.2-1.8-1.1-.8-1.1-.9 0-.6.8.2 1.3.7 1.2 1.2zm6 .6c0 .5-.8 1-1.7 1-1.5 0-1.6-.2-.3-1 1.9-1.2 2-1.2 2 0zm-7.4 2.2c.4.7.3.8-.4.4s-1.2-.3-1.2.2c0 .6-.7 1.2-1.5 1.6-1.9.7-1.9.1.1-1.8 1.8-1.9 2.1-1.9 3-.4zm3.8 2.3c-.4.8-.8 1.5-1 1.5-.2 0-.4-.7-.4-1.5s.4-1.5 1-1.5c.5 0 .7.7.4 1.5zM101 22c0 .5-.5 1-1.1 1-.5 0-.7-.5-.4-1 .3-.6.8-1 1.1-1 .2 0 .4.4.4 1zm12-.6c0 .3-.4.8-1 1.1-.5.3-1 .1-1-.4 0-.6.5-1.1 1-1.1.6 0 1 .2 1 .4zm-7 2c0 .3-.4.8-1 1.1-.5.3-1 .1-1-.4 0-.6.5-1.1 1-1.1.6 0 1 .2 1 .4zm4.5.6c.3.5.1 1-.4 1-.6 0-1.1-.5-1.1-1 0-.6.2-1 .4-1 .3 0 .8.4 1.1 1zm-8 .9c.3.5 0 1.3-.6 1.7-.8.5-.9.3-.4-.6.6-1 .4-1.2-.9-.7-1 .4-1.5.3-1.1-.3.8-1.3 2.2-1.3 3-.1zm3.5 2.2c-.7 1.1-1.4 1.8-1.7 1.5-.3-.3-1.2.2-2 1.2-1.3 1.5-1.3 1.5-.3-.6.6-1.2 1.5-2 1.9-1.7.5.3 1.1-.2 1.5-1 .3-.8.8-1.5 1.1-1.5.3 0 .1.9-.5 2.1zm4-.7c0 .2-.7.7-1.6 1-.8.3-1.2.2-.9-.4.6-1 2.5-1.4 2.5-.6zm-3.4 3.5c-.3.5.1 1.1.9 1.5.8.3 1.5 1 1.5 1.6 0 .5-.9.2-1.9-.7-1.7-1.4-2-3.3-.5-3.3.3 0 .3.4 0 .9zm-4.1 3c.3.5 0 1.3-.6 1.7-.8.5-.9.3-.4-.6.6-1 .4-1.2-.9-.7-1 .4-1.5.3-1.1-.3.8-1.3 2.2-1.3 3-.1zm2.5.8c0 .5-1 1.9-2.1 3.3l-2.1 2.5 1.8-3.3c1.8-3.2 2.4-3.8 2.4-2.5zm3 1.7c0 .3-.4.8-1 1.1-.5.3-1 .1-1-.4 0-.6.5-1.1 1-1.1.6 0 1 .2 1 .4zm5.2.3c-.6.2-.9 1-.6 1.5.4.7.2.8-.4.4-1.8-1.1-1.4-2.6.6-2.5 1 0 1.2.3.4.6zm-9.1 3.6c-1 .9-1.1.8-.5-.6.3-1 .9-1.5 1.2-1.2.3.3 0 1.1-.7 1.8zm8.4 1.7c.4.6-.1.7-1.1.3-1.3-.5-1.5-.3-.9.7.5.9.4 1.1-.4.6-.6-.4-.9-1.2-.6-1.7.8-1.2 2.2-1.2 3 .1zM102 42.9c-1.3 2.6-1.3 3.4.2 2.5.7-.4.8-.3.4.4-.4.6-1.3.9-2.1.6-1.2-.5-1.2-.9.2-3 1.8-2.9 2.8-3.2 1.3-.5zm2.1.4c-1 .9-1.1.8-.5-.6.3-1 .9-1.5 1.2-1.2.3.3 0 1.1-.7 1.8zm2.9.7c0 .5-.5 1-1.1 1-.5 0-.7-.5-.4-1 .3-.6.8-1 1.1-1 .2 0 .4.4.4 1zm5.5 2.1c-.4.5-1.2.9-1.8.8-.9 0-.8-.2.1-.6.6-.2.9-1 .6-1.5-.4-.7-.2-.8.5-.4.6.4.9 1.2.6 1.7zm-8.5 1.4c-.7.8-1.7 1.5-2.3 1.5-.6 0-.2-.7.9-1.5 2.5-1.9 3-1.9 1.4 0zm4-.1c-.1.5.4 1.3 1.2 1.8 1.1.8 1.1.9 0 .6-.8-.2-1.3-.7-1.2-1.2.1-.5-.4-1.3-1.2-1.8-1.1-.8-1.1-.9 0-.6.8.2 1.3.7 1.2 1.2zm6 .6c0 .5-.8 1-1.7 1-1.5 0-1.6-.2-.3-1 1.9-1.2 2-1.2 2 0zm-7.4 2.2c.4.7.3.8-.4.4s-1.2-.3-1.2.2c0 .6-.7 1.2-1.5 1.6-1.9.7-1.9.1.1-1.8 1.8-1.9 2.1-1.9 3-.4zm3.8 2.3c-.4.8-.8 1.5-1 1.5-.2 0-.4-.7-.4-1.5s.4-1.5 1-1.5c.5 0 .7.7.4 1.5zM101 54c0 .5-.5 1-1.1 1-.5 0-.7-.5-.4-1 .3-.6.8-1 1.1-1 .2 0 .4.4.4 1zm12-.6c0 .3-.4.8-1 1.1-.5.3-1 .1-1-.4 0-.6.5-1.1 1-1.1.6 0 1 .2 1 .4zm-7 2c0 .3-.4.8-1 1.1-.5.3-1 .1-1-.4 0-.6.5-1.1 1-1.1.6 0 1 .2 1 .4zm4.5.6c.3.5.1 1-.4 1-.6 0-1.1-.5-1.1-1 0-.6.2-1 .4-1 .3 0 .8.4 1.1 1zm-8 .9c.3.5 0 1.3-.6 1.7-.8.5-.9.3-.4-.6.6-1 .4-1.2-.9-.7-1 .4-1.5.3-1.1-.3.8-1.3 2.2-1.3 3-.1zm3.5 2.2c-.7 1.1-1.4 1.8-1.7 1.5-.3-.3-1.2.2-2 1.2-1.3 1.5-1.3 1.5-.3-.6.6-1.2 1.5-2 1.9-1.7.5.3 1.1-.2 1.5-1 .3-.8.8-1.5 1.1-1.5.3 0 .1.9-.5 2.1zm4-.7c0 .2-.7.7-1.6 1-.8.3-1.2.2-.9-.4.6-1 2.5-1.4 2.5-.6zm-3.4 3.5c-.3.5.1 1.1.9 1.5.8.3 1.5 1 1.5 1.6 0 .5-.9.2-1.9-.7-1.7-1.4-2-3.3-.5-3.3.3 0 .3.4 0 .9zm-4.1 3c.3.5 0 1.3-.6 1.7-.8.5-.9.3-.4-.6.6-1 .4-1.2-.9-.7-1 .4-1.5.3-1.1-.3.8-1.3 2.2-1.3 3-.1zm2.5.8c0 .5-1 1.9-2.1 3.3l-2.1 2.5 1.8-3.3c1.8-3.2 2.4-3.8 2.4-2.5zm3 1.7c0 .3-.4.8-1 1.1-.5.3-1 .1-1-.4 0-.6.5-1.1 1-1.1.6 0 1 .2 1 .4zm5.2.3c-.6.2-.9 1-.6 1.5.4.7.2.8-.4.4-1.8-1.1-1.4-2.6.6-2.5 1 0 1.2.3.4.6zm-9.1 3.6c-1 .9-1.1.8-.5-.6.3-1 .9-1.5 1.2-1.2.3.3 0 1.1-.7 1.8zm8.4 1.7c.4.6-.1.7-1.1.3-1.3-.5-1.5-.3-.9.7.5.9.4 1.1-.4.6-.6-.4-.9-1.2-.6-1.7.8-1.2 2.2-1.2 3 .1zM102 74.9c-1.3 2.6-1.3 3.4.2 2.5.7-.4.8-.3.4.4-.4.6-1.3.9-2.1.6-1.2-.5-1.2-.9.2-3 1.8-2.9 2.8-3.2 1.3-.5zm2.1.4c-1 .9-1.1.8-.5-.6.3-1 .9-1.5 1.2-1.2.3.3 0 1.1-.7 1.8zm2.9.7c0 .5-.5 1-1.1 1-.5 0-.7-.5-.4-1 .3-.6.8-1 1.1-1 .2 0 .4.4.4 1zm5.5 2.1c-.4.5-1.2.9-1.8.8-.9 0-.8-.2.1-.6.6-.2.9-1 .6-1.5-.4-.7-.2-.8.5-.4.6.4.9 1.2.6 1.7zm-8.5 1.4c-.7.8-1.7 1.5-2.3 1.5-.6 0-.2-.7.9-1.5 2.5-1.9 3-1.9 1.4 0zm4-.1c-.1.5.4 1.3 1.2 1.8 1.1.8 1.1.9 0 .6-.8-.2-1.3-.7-1.2-1.2.1-.5-.4-1.3-1.2-1.8-1.1-.8-1.1-.9 0-.6.8.2 1.3.7 1.2 1.2zm6 .6c0 .5-.8 1-1.7 1-1.5 0-1.6-.2-.3-1 1.9-1.2 2-1.2 2 0zm-13.5 1.9c.3.5.2 1.2-.3 1.5-.5.3-.9-.1-.9-.9 0-1.7.3-1.9 1.2-.6zm6 .1c.3.6-.1.7-1 .4-1-.4-1.5-.2-1.3.6.2.7-.4 1.5-1.2 1.7-1.3.4-1.3.3 0-.6.8-.6 1.1-1.1.7-1.1-1.1 0 .2-2 1.3-2 .5 0 1.2.4 1.5 1zm4.5 1.4c0 .3-.4.8-1 1.1-.5.3-1 .1-1-.4 0-.6.5-1.1 1-1.1.6 0 1 .2 1 .4zM101 86c0 .5-.5 1-1.1 1-.5 0-.7-.5-.4-1 .3-.6.8-1 1.1-1 .2 0 .4.4.4 1zm5.4-.1c.3.4-.4 1.7-1.5 2.7-1.8 1.6-1.9 1.6-1.3.1.3-.9 1-1.7 1.6-1.7.5 0 .6-.5.3-1-.3-.6-.4-1-.1-1 .3 0 .7.4 1 .9zm6.6-.5c0 .3-.4.8-1 1.1-.5.3-1 .1-1-.4 0-.6.5-1.1 1-1.1.6 0 1 .2 1 .4zm-2.6 2.1c.3.8.1 1.5-.4 1.5-.6 0-1-.7-1-1.5s.2-1.5.4-1.5.6.7 1 1.5zm-8.4.9c0 .2-.7.7-1.6 1-.8.3-1.2.2-.9-.4.6-1 2.5-1.4 2.5-.6zm4.4 1.7c-.4.8.1.9 1.7.5 2-.6 2.1-.5.6.4-1.9 1.2-4.1.4-3.2-1.1.4-.5.8-.9 1.1-.9.3 0 .2.5-.2 1.1zm7.6-.7c0 .9-3.2 3.6-4.2 3.6-.6 0 0-.9 1.3-2 2.5-2.1 2.9-2.3 2.9-1.6zm-11.5 3.5c.3.5 0 1.3-.6 1.7-.8.5-.9.3-.4-.6.6-1 .4-1.2-.9-.7-1 .4-1.5.3-1.1-.3.8-1.3 2.2-1.3 3-.1zm-61.5.5c0 .3-.4.8-1 1.1-.5.3-1 .1-1-.4 0-.6.5-1.1 1-1.1.6 0 1 .2 1 .4zm4 .6c0 .5-.7.7-1.5.4-.8-.4-1.5-.8-1.5-1 0-.2.7-.4 1.5-.4s1.5.4 1.5 1zm59.7 1.5c0 .8-.4 1.2-.9.9-.4-.3-.8 0-.8.7s-.3.9-.6.6c-.4-.4-.1-1.3.6-2.2 1.5-1.9 1.7-1.9 1.7 0zm6.8.4c-.3.6-1.1 1.1-1.6 1.1s-.4-.6.3-1.4c1.4-1.6 2.4-1.3 1.3.3zm-75.9.6c1.8 1.5 1.8 1.5 0 .8-1.4-.5-1.7-.3-1.1.7.5.9.4 1.1-.4.6-.6-.4-.9-1.1-.6-1.6.3-.4-.1-1.1-.7-1.3-.7-.3-.8-.6-.2-.6.5-.1 1.9.6 3 1.4zm7.4-1c0 .2-1 1-2.2 1.6-2.1 1.1-2.2 1.1-.9-.4 1.3-1.6 3.1-2.3 3.1-1.2zm1.3 2c-.3.9-.8 1.4-1 1.1-.3-.3-.2-.9.2-1.5.9-1.6 1.5-1.3.8.4zm55.8 1.8c-1 .9-1.1.8-.5-.6.3-1 .9-1.5 1.2-1.2.3.3 0 1.1-.7 1.8zm6.3-1.2c-.4.8.1.9 1.7.5 2-.6 2.1-.5.6.4-1.9 1.2-4.1.4-3.2-1.1.4-.5.8-.9 1.1-.9.3 0 .2.5-.2 1.1zm-61.3 2.2c-1 .9-1.1.8-.5-.6.3-1 .9-1.5 1.2-1.2.3.3 0 1.1-.7 1.8zM38 100c-.8.5-1.9 1-2.5 1-.5 0-.3-.5.5-1s2-1 2.5-1c.6 0 .3.5-.5 1zm66.6.2c.4.7.3.8-.4.4s-1.2-.2-1.2.5-.3 1-.6.6c-.6-.5.3-2.7 1.1-2.7.2 0 .7.5 1.1 1.2zM41 101c0 .5-.8 1-1.7 1-1.5 0-1.6-.2-.3-1 1.9-1.2 2-1.2 2 0zm4.7 1.4c-1 .8-1.8 1.8-1.7 2.2.1.5-.4 1-1.2 1.2-.9.2-.8 0 .2-.7.8-.6 1.1-1.1.5-1.1-.5 0-.1-.7.9-1.5 1.1-.8 2.2-1.5 2.5-1.5.3 0-.2.7-1.2 1.4zm55.3-.4c0 .5-.2 1-.4 1-.3 0-.8-.5-1.1-1-.3-.6-.1-1 .4-1 .6 0 1.1.4 1.1 1zm-50.2 3.5c-.3.3-.9-.2-1.2-1.2-.6-1.4-.5-1.5.5-.6.7.7 1 1.5.7 1.8zM99 104c0 .5-.2 1-.4 1-.3 0-.8-.5-1.1-1-.3-.6-.1-1 .4-1 .6 0 1.1.4 1.1 1zm4.5 0c.3.5.1 1-.4 1-.6 0-1.1-.5-1.1-1 0-.6.2-1 .4-1 .3 0 .8.4 1.1 1zm4.9-.2c.2.4 0 1.4-.6 2.2-.8 1.2-.9 1.2-.5-.2.3-.9.1-1.9-.6-2.2-.9-.3-.9-.5 0-.5.6-.1 1.4.3 1.7.7zM49 106c0 .5-.7.7-1.5.4-.8-.4-1.5-.8-1.5-1 0-.2.7-.4 1.5-.4s1.5.4 1.5 1zm50 1.5c0 .8-.4 1.5-1 1.5-.5 0-.7-.7-.4-1.5.4-.8.8-1.5 1-1.5.2 0 .4.7.4 1.5zm-56 .5c0 .5-.2 1-.4 1-.3 0-.8-.5-1.1-1-.3-.6-.1-1 .4-1 .6 0 1.1.4 1.1 1zm4-.6c0 .2-.7.7-1.6 1-.8.3-1.2.2-.9-.4.6-1 2.5-1.4 2.5-.6zm58 .6c-.8.5-1.1 1-.5 1 .5 0 .4.5-.3 1.2-.9.9-1.5.9-2.4-.1-1.1-1-.9-1.1.5-.5 1 .3 1.7.3 1.6-.2-.3-1.7.1-2.4 1.4-2.4.8 0 .7.4-.3 1zm-58.6 2.2c-.5.8-.1.9 1.2.4 1.4-.5 1.6-.4.7.5-1.3 1.3-3.7.3-2.8-1.2.4-.5.8-.9 1.1-.9.3 0 .2.5-.2 1.2zm6.4 1.6c.2.7-.1 1.2-.8 1.2-.6 0-.9-.4-.6-.9.4-.5.1-1.2-.4-1.4-.6-.3-.5-.4.2-.3.6.1 1.4.8 1.6 1.4zm4.3-.1c1.3 1.7 1.3 1.7-.6.3-1.1-.8-2.2-1.6-2.4-1.7-.2-.2 0-.3.6-.3s1.7.8 2.4 1.7zm43.5.6c.1.9-.2 1.5-.7 1.1-.5-.3-.7-.9-.4-1.4.3-.4 0-1.1-.5-1.3-.6-.3-.5-.4.1-.3.7.1 1.3 1 1.5 1.9zm4.8.2c-1 .8-2.3 1.5-2.8 1.5-.6 0-.1-.7 1-1.5 1-.8 2.3-1.5 2.8-1.5.6 0 .1.7-1 1.5zm-48.4 2c0 .2-.9.3-1.9.2-1.1 0-1.8-.5-1.5-.9.4-.6 3.4 0 3.4.7zm36.9.7c-1.6 3.1-1.6 3.1-2.3 1.3-.3-.9-.2-1.4.3-1.1.5.3 1.1-.1 1.5-.9.3-.8.8-1.5 1.1-1.5.3 0 0 1-.6 2.2zm-32.9-.8c0 .3-.4.8-1 1.1-.5.3-1 .1-1-.4 0-.6.5-1.1 1-1.1.6 0 1 .2 1 .4zm38.5 1.6c.3.6-.1.7-.9.4-1.8-.7-2.1-1.4-.7-1.4.6 0 1.3.4 1.6 1zm2.9.5c-.4.8-.8 1.5-1 1.5-.2 0-.4-.7-.4-1.5s.4-1.5 1-1.5c.5 0 .7.7.4 1.5zm-11.4 3c0 .7-3 1.3-3.4.7-.3-.4.4-.9 1.5-.9 1-.1 1.9 0 1.9.2zm2 1c-.7.8-1.7 1.5-2.3 1.5-.6 0-.2-.7.9-1.5 2.5-1.9 3-1.9 1.4 0zm-6.5 1.4c-.9.8-3.6 1-3 .2.2-.4 1.1-.8 2-.8.8 0 1.3.3 1 .6zm9.5-.5c0 .2-.7.7-1.6 1-.8.3-1.2.2-.9-.4.6-1 2.5-1.4 2.5-.6zm-5 2.6c0 .5-.2 1-.4 1-.3 0-.8-.5-1.1-1-.3-.6-.1-1 .4-1 .6 0 1.1.4 1.1 1zm-6.7 1.5c-.3.9-.8 1.4-1 1.1-.3-.3-.2-.9.2-1.5.9-1.6 1.5-1.3.8.4zm-7.8 3.3c-.3.3-1.1 0-1.8-.7-.9-1-.8-1.1.6-.5 1 .3 1.5.9 1.2 1.2z"/></svg>